<?xml version="1.0" encoding="UTF-8"?>
<svg id="Ebene_2" xmlns="http://www.w3.org/2000/svg" version="1.1" viewBox="0 0 658.5 59.1">
  <!-- Generator: Adobe Illustrator 29.1.0, SVG Export Plug-In . SVG Version: 2.1.0 Build 142)  -->
  <defs>
    <style>
      .st0 {
        fill: #1d1d1b;
      }
    </style>
  </defs>
  <g id="Ebene_1-2">
    <path class="st0" d="M50.2,0v1c-8-.3-7.7,4.1-5.7,10.1l15.3,40.5.5-.6,8.8-24.3c-2.2-5.3-3.9-10.9-6.1-16.2-1.5-3.5-3.5-9.8-8-9.6V0h29.5v1c-2.7-.2-4.4,2.1-5.6,4.2-2.8,4.9-4.3,11.1-6.4,16.4l11.4,30.3c3.5-10.2,7.6-20.2,11.2-30.4,1.5-4.4,4.7-11.6,4.1-16.1-.4-3.3-4.2-4.9-7.2-4.5V0h16.6v1c-3.6-.2-5.2,3.4-6.5,6.1l-19.8,52h-1s-11.3-30.5-11.3-30.5l-11.5,30.5c-.7.1-1.1,0-1.3-.7-6.4-15.6-11.4-32.2-18-47.8-2.6-6.2-3.8-8.5-10.8-9.3-5.9-.7-11.7-.3-17.6-.3v24.5c2.3-2.4,5.3-3,8.5-2.6,4.4.4,10.5,5.5,14.7,2.8.8-.5,1.5-1.5,1.5-2.5h.7c-.1,6.5-6.7,7.5-11.8,5.9-3.1-1-7.3-4.9-10.3-4.4-2.3.3-3.1,2.5-3.3,4.6-.5,5.4-.5,16.8.3,22.1.4,3,1.4,6.1,5,5.9v.7H0v-.7c4.8.2,5.1-4.9,5.3-8.5.7-13.8-.4-28.4-.2-42.2C4.6,3.5,3.5.5,0,1V0h50.2ZM71.8,19.4c1.3-4.9,8.9-20.2-2-18.5-3.3.5-3.1,4.9-2.2,7.2l4.2,11.2h0Z"/>
    <g>
      <path d="M150,50h-3.1V7.9h28.2v2.8h-25.1v39.4ZM149.6,28.6h22.8v2.8h-22.8v-2.8Z"/>
      <path d="M184.9,50V7.9h3.1v42.1h-3.1Z"/>
      <path d="M202.6,50V7.9h2.6l30,38.3h-1.4V7.9h3.1v42.1h-2.5l-30.1-38.3h1.4v38.3h-3.1Z"/>
      <path d="M244.6,50l19.4-42.1h3.1l19.4,42.1h-3.3l-18.3-40.2h1.3l-18.2,40.2h-3.3ZM251.7,38.1l1-2.6h25.2l1,2.6h-27.3Z"/>
      <path d="M294,50V7.9h2.6l30,38.3h-1.4V7.9h3.1v42.1h-2.5l-30.1-38.3h1.4v38.3h-3.1Z"/>
      <path d="M338.5,50v-2.2l30-38.4.3,1.2h-30v-2.8h32.9v2.2l-30,38.4-.4-1.2h31v2.8h-33.9Z"/>
      <path d="M384.9,47.2h26v2.8h-29.1V7.9h28.2v2.8h-25.1v36.6ZM384.6,27.2h22.8v2.7h-22.8v-2.7Z"/>
      <path d="M416,50l17.1-22.9v2.4l-15.9-21.6h3.6l14.1,19h-1.3l14.1-19h3.4l-15.8,21.4v-2l17,22.8h-3.6l-15.2-20.3h1.3l-15,20.3h-3.6Z"/>
      <path d="M460.8,50V7.9h15.1c3.5,0,6.6.6,9.1,1.7,2.5,1.1,4.5,2.7,5.8,4.8,1.4,2.1,2,4.7,2,7.7s-.7,5.5-2,7.6c-1.4,2.1-3.3,3.8-5.8,4.9s-5.6,1.7-9.1,1.7h-13.4l1.4-1.4v15.2h-3.1ZM463.8,34.9l-1.4-1.5h13.4c4.5,0,8-1,10.3-3s3.5-4.8,3.5-8.4-1.2-6.5-3.5-8.5-5.8-3-10.3-3h-13.4l1.4-1.5v25.8Z"/>
      <path d="M506.8,47.2h26v2.8h-29.1V7.9h28.2v2.8h-25.1v36.6ZM506.5,27.2h22.8v2.7h-22.8v-2.7Z"/>
      <path d="M544,50V7.9h15.1c3.5,0,6.6.6,9.1,1.7,2.5,1.1,4.5,2.7,5.8,4.8,1.4,2.1,2,4.7,2,7.7s-.7,5.4-2,7.6c-1.4,2.1-3.3,3.7-5.8,4.9s-5.6,1.7-9.1,1.7h-13.4l1.4-1.4v15.2h-3.1ZM547.1,34.9l-1.4-1.4h13.4c4.5,0,8-1,10.3-3,2.3-2,3.5-4.8,3.5-8.4s-1.2-6.5-3.5-8.5-5.8-3-10.3-3h-13.4l1.4-1.5v25.8ZM573.3,50l-11-15.3h3.5l11,15.3h-3.5Z"/>
      <path d="M595.4,50V10.6h-15.2v-2.8h33.4v2.8h-15.2v39.4h-3.1Z"/>
      <path d="M624.3,47.2h26v2.8h-29.1V7.9h28.2v2.8h-25.1v36.6ZM623.9,27.2h22.8v2.7h-22.8v-2.7Z"/>
    </g>
  </g>
</svg>